<svg xmlns="http://www.w3.org/2000/svg" width="128" height="128" viewBox="0 0 96 96" preserveAspectRatio="xMidYMid meet">
  <g fill="#f59e0b">
    <path d="M 69.078125 48.546875 C 64.234375 48.546875 60.179688 47.199219 56.921875 44.5 C 53.640625 41.84375 52 38.558594 52 34.640625 L 52 6.40625 L 60.640625 6.40625 L 60.640625 33.03125 C 60.640625 35.25 61.453125 37.101562 63.078125 38.578125 C 64.671875 40.089844 66.671875 40.84375 69.078125 40.84375 C 71.472656 40.84375 73.503906 40.089844 75.171875 38.578125 C 76.796875 37.101562 77.609375 35.25 77.609375 33.03125 L 77.609375 6.40625 L 86.203125 6.40625 L 86.203125 34.640625 C 86.203125 38.589844 84.578125 41.898438 81.328125 44.5625 C 78.035156 47.21875 73.953125 48.546875 69.078125 48.546875 Z"/>
  </g>
</svg>
